<?xml version="1.0" encoding="UTF-8"?>
<svg width="80px" height="80px" viewBox="0 0 80 80" version="1.1" xmlns="http://www.w3.org/2000/svg" xmlns:xlink="http://www.w3.org/1999/xlink">
    <!-- Generator: Sketch 47.1 (45422) - http://www.bohemiancoding.com/sketch -->
    <title>Group 25</title>
    <desc>Created with Sketch.</desc>
    <defs></defs>
    <g id="Page-1" stroke="none" stroke-width="1" fill="none" fill-rule="evenodd">
        <g id="1070px" transform="translate(-615.000000, -11001.000000)">
            <g id="8" transform="translate(54.000000, 10787.000000)">
                <g id="2" transform="translate(531.000000, 214.000000)">
                    <g id="Group-25" transform="translate(30.000000, 0.000000)">
                        <path d="M52.6322,48.192 L52.6322,44.994 C52.6322,44.616 52.4002,44.276 52.0482,44.142 C47.9182,42.568 43.3362,40.612 42.9522,39.392 L42.9522,38.114 C43.8082,37.248 44.4842,36.042 44.8842,34.628 C45.8462,33.96 46.0802,32.588 45.2882,31.624 L45.2882,28.762 C45.2882,25.806 43.6202,23.784 39.8122,23.784 C36.1002,23.784 34.3342,25.806 34.3342,28.762 L34.3342,31.626 C33.5442,32.586 33.7742,33.958 34.7382,34.628 C35.1382,36.042 35.8142,37.248 36.6702,38.114 L36.6702,39.392 C36.2862,40.61 31.7042,42.566 27.5762,44.142 C27.2242,44.278 26.9902,44.616 26.9902,44.994 L26.9902,48.192" id="Stroke-1" stroke="#FF5C5D" stroke-width="2" stroke-linecap="round" stroke-linejoin="round"></path>
                        <path d="M53.7858,8 L25.8378,8 C23.0918,8 20.8478,10.302 20.8478,13.112 L20.8478,66.864 C20.8478,69.676 23.0918,71.976 25.8378,71.976 L53.7858,71.976 C56.5298,71.976 58.7758,69.676 58.7758,66.864 L58.7758,13.112 C58.7758,10.302 56.5298,8 53.7858,8 Z" id="Stroke-37" stroke="#404E54" stroke-width="2" stroke-linecap="round" stroke-linejoin="round"></path>
                        <path d="M20.847,60.1998 L58.775,60.1998" id="Stroke-49" stroke="#404E54" stroke-width="2" stroke-linecap="round" stroke-linejoin="round"></path>
                        <path d="M43.7632,66.0878 L35.8592,66.0878" id="Stroke-51" stroke="#404E54" stroke-width="2" stroke-linecap="round" stroke-linejoin="round"></path>
                    </g>
                </g>
            </g>
        </g>
    </g>
</svg>
