<?xml version="1.0" encoding="UTF-8"?>
<svg width="80px" height="80px" viewBox="0 0 80 80" version="1.1" xmlns="http://www.w3.org/2000/svg" xmlns:xlink="http://www.w3.org/1999/xlink">
    <!-- Generator: Sketch 47.1 (45422) - http://www.bohemiancoding.com/sketch -->
    <title>Group 26</title>
    <desc>Created with Sketch.</desc>
    <defs></defs>
    <g id="Page-1" stroke="none" stroke-width="1" fill="none" fill-rule="evenodd">
        <g id="1070px" transform="translate(-135.000000, -11001.000000)">
            <g id="8" transform="translate(54.000000, 10787.000000)">
                <g id="1" transform="translate(51.000000, 214.000000)">
                    <g id="Group-26" transform="translate(30.000000, 0.000000)">
                        <path d="M50,39.6564 L50,54.6564 C50,61.2564 44.6,66.6564 38,66.6564 L14,66.6564 C7.372,66.6564 2,61.2844 2,54.6564 L2,30.6564 C2,24.0284 7.372,18.6564 14,18.6564 L29,18.6564" id="Stroke-35" stroke="#404E54" stroke-width="2" stroke-linecap="round" stroke-linejoin="round"></path>
                        <path d="M64.3112,33.937 L46.8792,33.937 C40.0812,33.937 34.5692,28.427 34.5692,21.629 L34.5692,21.629 C34.5692,14.831 40.0812,9.319 46.8792,9.319 L64.3112,9.319 C71.1092,9.319 76.6192,14.831 76.6192,21.629 L76.6192,21.629 C76.6192,28.427 71.1092,33.937 64.3112,33.937 Z" id="Stroke-39" stroke="#FF5C5D" stroke-width="2" stroke-linecap="round" stroke-linejoin="round"></path>
                        <path d="M47.8702,22.8058 L50.3282,22.8058 C50.2122,23.3638 49.9522,23.8238 49.5382,24.2018 C49.0242,24.6718 48.3902,24.8998 47.6022,24.8998 C46.7042,24.8998 45.9882,24.6078 45.4122,24.0118 C44.8342,23.4098 44.5542,22.6538 44.5542,21.6998 C44.5542,20.6818 44.8322,19.8818 45.4042,19.2638 C45.9682,18.6538 46.6882,18.3558 47.6022,18.3558 C48.1542,18.3558 48.6422,18.4738 49.0542,18.7038 C49.4642,18.9358 49.8142,19.2918 50.0942,19.7638 L50.3282,20.1578 L51.8522,18.9358 L51.6502,18.6318 C51.2022,17.9558 50.6282,17.4438 49.9462,17.1058 C49.2702,16.7738 48.4702,16.6038 47.5662,16.6038 C46.8882,16.6038 46.2542,16.7098 45.6822,16.9198 C45.1082,17.1298 44.5962,17.4458 44.1602,17.8578 C43.6482,18.3458 43.2582,18.9198 43.0002,19.5658 C42.7482,20.1998 42.6202,20.9198 42.6202,21.6998 C42.6202,22.6578 42.8362,23.5258 43.2622,24.2818 C43.6922,25.0478 44.3082,25.6538 45.0982,26.0878 C45.4442,26.2698 45.8262,26.4138 46.2302,26.5078 C46.6282,26.6018 47.0582,26.6518 47.5062,26.6518 C48.9722,26.6518 50.1522,26.2058 51.0122,25.3278 C51.8702,24.4498 52.3062,23.2518 52.3062,21.7618 L52.3062,21.0658 L47.8702,21.0658 L47.8702,22.8058 Z" id="Fill-41" fill="#FF5C5D"></path>
                        <polygon id="Fill-43" fill="#FF5C5D" points="54.5382 26.4172 59.9862 26.4172 59.9862 24.6412 56.3862 24.6412 56.3862 22.0652 59.9862 22.0652 59.9862 20.2892 56.3862 20.2892 56.3862 18.5612 59.9862 18.5612 59.9862 16.8032 54.5382 16.8032"></polygon>
                        <polygon id="Fill-45" fill="#FF5C5D" points="61.7364 16.8038 61.7364 18.6038 64.2284 18.6038 64.2284 26.4178 66.0884 26.4178 66.0884 18.6038 68.5684 18.6038 68.5684 16.8038"></polygon>
                        <path d="M36.563,50.0508 C34.185,53.3108 30.345,55.4388 26.001,55.4388 C18.777,55.4388 12.919,49.5828 12.919,42.3588 C12.919,35.1348 18.777,29.2788 26.001,29.2788 C27.101,29.2788 28.165,29.4288 29.187,29.6848" id="Stroke-47" stroke="#404E54" stroke-width="2" stroke-linecap="round" stroke-linejoin="round"></path>
                    </g>
                </g>
            </g>
        </g>
    </g>
</svg>
