<?xml version="1.0" encoding="UTF-8"?>
<svg width="80px" height="80px" viewBox="0 0 80 80" version="1.1" xmlns="http://www.w3.org/2000/svg" xmlns:xlink="http://www.w3.org/1999/xlink">
    <!-- Generator: Sketch 47.1 (45422) - http://www.bohemiancoding.com/sketch -->
    <title>Group 27</title>
    <desc>Created with Sketch.</desc>
    <defs></defs>
    <g id="Page-1" stroke="none" stroke-width="1" fill="none" fill-rule="evenodd">
        <g id="1070px" transform="translate(-135.000000, -11321.000000)">
            <g id="8" transform="translate(54.000000, 10787.000000)">
                <g id="4" transform="translate(51.000000, 534.000000)">
                    <g id="Group-27" transform="translate(30.000000, 0.000000)">
                        <path d="M63.8124,21.9676 C63.8124,23.6936 62.4144,25.0916 60.6884,25.0916 C58.9624,25.0916 57.5624,23.6936 57.5624,21.9676 C57.5624,20.2416 58.9624,18.8436 60.6884,18.8436 C62.4144,18.8436 63.8124,20.2416 63.8124,21.9676 Z" id="Stroke-3" stroke="#FF5C5D" stroke-width="2" stroke-linecap="round" stroke-linejoin="round"></path>
                        <path d="M13.6876,41.968 L35.6876,41.968 C37.3436,41.968 38.6876,40.624 38.6876,38.968 L38.6876,16.968 C38.6876,15.31 37.3436,13.968 35.6876,13.968 L13.6876,13.968 C12.0316,13.968 10.6876,15.31 10.6876,16.968 L10.6876,38.968 C10.6876,40.624 12.0316,41.968 13.6876,41.968 Z" id="Stroke-5" stroke="#404E54" stroke-width="2" stroke-linecap="round" stroke-linejoin="round"></path>
                        <path d="M43.6876,69.9678 L65.6876,69.9678 C67.3436,69.9678 68.6876,68.6238 68.6876,66.9678 L68.6876,46.9678 C68.6876,45.3098 67.3436,43.9678 65.6876,43.9678 L43.6876,43.9678 C42.0316,43.9678 40.6876,45.3098 40.6876,46.9678 L40.6876,66.9678 C40.6876,68.6238 42.0316,69.9678 43.6876,69.9678 Z" id="Stroke-7" stroke="#404E54" stroke-width="2" stroke-linecap="round" stroke-linejoin="round"></path>
                        <path d="M57.5628,21.9676 L56.5628,21.9676" id="Stroke-9" stroke="#FF5C5D" stroke-width="2" stroke-linecap="round" stroke-linejoin="round"></path>
                        <path d="M51.9192,21.9676 L48.0492,21.9676" id="Stroke-11" stroke="#FF5C5D" stroke-width="2" stroke-linecap="round" stroke-linejoin="round" stroke-dasharray="1.547999978065491,4.644000053405762"></path>
                        <path d="M45.7278,21.9676 L44.7278,21.9676" id="Stroke-13" stroke="#FF5C5D" stroke-width="2" stroke-linecap="round" stroke-linejoin="round"></path>
                        <path d="M60.6876,35.9676 L60.6876,34.9676" id="Stroke-15" stroke="#FF5C5D" stroke-width="2" stroke-linecap="round" stroke-linejoin="round"></path>
                        <path d="M60.6876,31.1638 L60.6876,27.9938" id="Stroke-17" stroke="#FF5C5D" stroke-width="2" stroke-linecap="round" stroke-linejoin="round" stroke-dasharray="1.26800000667572,3.803999900817871"></path>
                        <path d="M60.6876,26.0926 L60.6876,25.0926" id="Stroke-19" stroke="#FF5C5D" stroke-width="2" stroke-linecap="round" stroke-linejoin="round"></path>
                        <path d="M15.5628,63.9856 C15.5628,62.2596 16.9608,60.8616 18.6868,60.8616 C20.4128,60.8616 21.8128,62.2596 21.8128,63.9856 C21.8128,65.7116 20.4128,67.1096 18.6868,67.1096 C16.9608,67.1096 15.5628,65.7116 15.5628,63.9856 Z" id="Stroke-21" stroke="#FF5C5D" stroke-width="2" stroke-linecap="round" stroke-linejoin="round"></path>
                        <path d="M21.8124,63.9856 L22.8124,63.9856" id="Stroke-23" stroke="#FF5C5D" stroke-width="2" stroke-linecap="round" stroke-linejoin="round"></path>
                        <path d="M27.456,63.9856 L31.326,63.9856" id="Stroke-25" stroke="#FF5C5D" stroke-width="2" stroke-linecap="round" stroke-linejoin="round" stroke-dasharray="1.547999978065491,4.644000053405762"></path>
                        <path d="M33.6474,63.9856 L34.6474,63.9856" id="Stroke-27" stroke="#FF5C5D" stroke-width="2" stroke-linecap="round" stroke-linejoin="round"></path>
                        <path d="M18.6876,49.9856 L18.6876,50.9856" id="Stroke-29" stroke="#FF5C5D" stroke-width="2" stroke-linecap="round" stroke-linejoin="round"></path>
                        <path d="M18.6876,54.7894 L18.6876,57.9594" id="Stroke-31" stroke="#FF5C5D" stroke-width="2" stroke-linecap="round" stroke-linejoin="round" stroke-dasharray="1.26800000667572,3.803999900817871"></path>
                        <path d="M18.6876,59.8606 L18.6876,60.8606" id="Stroke-33" stroke="#FF5C5D" stroke-width="2" stroke-linecap="round" stroke-linejoin="round"></path>
                        <path d="M25.639,27.9678 L23.737,27.9678" id="Stroke-53" stroke="#FF5C5D" stroke-width="2" stroke-linecap="round" stroke-linejoin="round"></path>
                        <path d="M55.639,56.9678 L53.737,56.9678" id="Stroke-55" stroke="#FF5C5D" stroke-width="2" stroke-linecap="round" stroke-linejoin="round"></path>
                    </g>
                </g>
            </g>
        </g>
    </g>
</svg>
