<?xml version="1.0" encoding="UTF-8"?>
<svg width="80px" height="80px" viewBox="0 0 80 80" version="1.1" xmlns="http://www.w3.org/2000/svg" xmlns:xlink="http://www.w3.org/1999/xlink">
    <!-- Generator: Sketch 47.1 (45422) - http://www.bohemiancoding.com/sketch -->
    <title>Group 24</title>
    <desc>Created with Sketch.</desc>
    <defs></defs>
    <g id="Page-1" stroke="none" stroke-width="1" fill="none" fill-rule="evenodd">
        <g id="1070px" transform="translate(-615.000000, -11321.000000)">
            <g id="8" transform="translate(54.000000, 10787.000000)">
                <g id="3" transform="translate(531.000000, 534.000000)">
                    <g id="Group-24" transform="translate(30.000000, 0.000000)">
                        <path d="M55.5908,72.835 C55.5908,72.835 52.2328,65.213 47.0888,62.613 C42.7388,60.413 42.7768,57.793 40.1068,54.545 C40.1068,54.545 36.6208,50.661 36.9528,49.543 C37.7888,48.745 38.4928,48.339 40.5348,49.689 L47.0268,54.885 C48.5788,52.085 47.3668,47.069 47.1128,46.107 L44.0888,35.373 C43.8308,34.449 44.4028,33.495 45.3648,33.243 L45.4488,33.221 C46.3788,32.979 47.3388,33.481 47.6348,34.361 L52.9528,50.215 L53.1448,50.239 L47.2328,33.155 C46.9748,32.231 47.5628,31.273 48.5448,31.017 L48.6288,30.995 C49.5768,30.747 50.5528,31.245 50.8488,32.125 L57.5588,50.793 L57.7368,50.815 L56.4208,45.737 C56.1628,44.813 56.7348,43.859 57.6988,43.607 L57.7808,43.585 C58.7108,43.343 59.6728,43.845 59.9668,44.725 L62.1888,51.281 L61.4708,47.613 C61.2688,46.675 61.8948,45.755 62.8728,45.557 L62.9568,45.539 C63.8988,45.349 64.8288,45.903 65.0708,46.799 C65.9228,49.919 66.2508,53.151 66.0248,56.373 C65.7708,59.991 66.2708,64.033 67.3728,66.537" id="Stroke-57" stroke="#FF5C5D" stroke-width="2" stroke-linecap="round" stroke-linejoin="round"></path>
                        <path d="M36.9306,62.1892 L22.8046,62.1892 C20.8746,62.1892 19.3086,60.6252 19.3086,58.6932 L19.3086,23.7392 C19.3086,21.8092 20.8746,20.2432 22.8046,20.2432 L57.7586,20.2432 C59.6906,20.2432 61.2546,21.8092 61.2546,23.7392 L61.2546,34.5192" id="Stroke-59" stroke="#404E54" stroke-width="2" stroke-linecap="round" stroke-linejoin="round"></path>
                        <path d="M12.0654,51.4498 L12.0654,49.4498" id="Stroke-61" stroke="#FF5C5D" stroke-width="2" stroke-linecap="round" stroke-linejoin="round"></path>
                        <path d="M27.5078,14 L23.3078,14 C22.7558,14 22.3078,13.552 22.3078,13 C22.3078,12.448 22.7558,12 23.3078,12 L27.5078,12 C28.0598,12 28.5078,12.448 28.5078,13 C28.5078,13.552 28.0598,14 27.5078,14 M35.9078,14 L31.7078,14 C31.1538,14 30.7078,13.552 30.7078,13 C30.7078,12.448 31.1538,12 31.7078,12 L35.9078,12 C36.4598,12 36.9078,12.448 36.9078,13 C36.9078,13.552 36.4598,14 35.9078,14 M44.3058,14 L40.1058,14 C39.5538,14 39.1058,13.552 39.1058,13 C39.1058,12.448 39.5538,12 40.1058,12 L44.3058,12 C44.8578,12 45.3058,12.448 45.3058,13 C45.3058,13.552 44.8578,14 44.3058,14 M14.9118,14.06 C14.4398,14.06 14.0198,13.724 13.9298,13.244 C13.8298,12.702 14.1878,12.178 14.7298,12.078 C14.9998,12.028 15.2778,12 15.5598,12 L19.1078,12 C19.6618,12 20.1078,12.448 20.1078,13 C20.1078,13.552 19.6618,14 19.1078,14 L15.5598,14 C15.4018,14 15.2478,14.016 15.0958,14.042 C15.0338,14.054 14.9718,14.06 14.9118,14.06 M12.0658,21.052 C11.5118,21.052 11.0658,20.606 11.0658,20.052 L11.0658,16.494 C11.0658,16.214 11.0918,15.942 11.1398,15.676 C11.2398,15.136 11.7598,14.796 12.3038,14.874 C12.8458,14.974 13.2058,15.496 13.1058,16.04 C13.0798,16.188 13.0658,16.34 13.0658,16.494 L13.0658,20.052 C13.0658,20.606 12.6178,21.052 12.0658,21.052 M12.0658,29.452 C11.5118,29.452 11.0658,29.004 11.0658,28.452 L11.0658,24.252 C11.0658,23.7 11.5118,23.252 12.0658,23.252 C12.6178,23.252 13.0658,23.7 13.0658,24.252 L13.0658,28.452 C13.0658,29.004 12.6178,29.452 12.0658,29.452 M12.0658,37.852 C11.5118,37.852 11.0658,37.404 11.0658,36.852 L11.0658,32.652 C11.0658,32.1 11.5118,31.652 12.0658,31.652 C12.6178,31.652 13.0658,32.1 13.0658,32.652 L13.0658,36.852 C13.0658,37.404 12.6178,37.852 12.0658,37.852 M12.0658,46.25 C11.5118,46.25 11.0658,45.802 11.0658,45.25 L11.0658,41.05 C11.0658,40.498 11.5118,40.05 12.0658,40.05 C12.6178,40.05 13.0658,40.498 13.0658,41.05 L13.0658,45.25 C13.0658,45.802 12.6178,46.25 12.0658,46.25" id="Fill-63" fill="#FF5C5D"></path>
                        <path d="M48.5156,13 L50.5156,13" id="Stroke-65" stroke="#FF5C5D" stroke-width="2" stroke-linecap="round" stroke-linejoin="round"></path>
                    </g>
                </g>
            </g>
        </g>
    </g>
</svg>
