<svg version="1" xmlns="http://www.w3.org/2000/svg" width="725.333" height="725.333" viewBox="0 0 544.000000 544.000000"><path d="M272 82.1c-74.6 5-141.4 56.3-165.8 127.4-13 38.1-13.1 83.9-.1 122.8 21.5 64.9 75.2 112.8 142.7 127.3 16.2 3.5 46.3 4.4 63.2 2 15.7-2.4 29.9-5.8 46.5-11.4l14-4.7.3-55.3.2-55.4-7.2 6.7c-14.3 12.9-29.8 22.1-46.3 27.1-8.3 2.6-10.3 2.8-27 2.8-15.9.1-18.9-.2-25.9-2.2-16.2-4.7-29.8-12.5-42-24.1-8.8-8.5-14.5-16.5-20.1-28.4-7.6-15.9-9-23-8.9-45.2 0-17.7.2-19.6 2.8-28 6.8-22.4 18.1-39.2 34.9-51.7 19.6-14.5 44-21.1 69.1-18.8 24.5 2.4 42.5 11 61.4 29.4l9.2 9V100l-3.7-1.6c-8.4-3.4-28.4-9.7-38.3-11.9-19.6-4.3-39-5.8-59-4.4z"/></svg>