<?xml version="1.0" encoding="UTF-8"?>
<svg width="60px" height="60px" viewBox="0 0 60 60" version="1.1" xmlns="http://www.w3.org/2000/svg" xmlns:xlink="http://www.w3.org/1999/xlink">
    <!-- Generator: Sketch 47.1 (45422) - http://www.bohemiancoding.com/sketch -->
    <title>Twitter</title>
    <desc>Created with Sketch.</desc>
    <defs></defs>
    <g id="Page-1" stroke="none" stroke-width="1" fill="none" fill-rule="evenodd">
        <g id="Desktop-HD-1" transform="translate(-680.000000, -11820.000000)">
            <g id="9" transform="translate(0.000000, 11760.000000)">
                <g id="Twitter" transform="translate(680.000000, 60.000000)">
                    <path d="M46.4434,21.1245 C45.9044,21.4215 44.2874,22.0155 42.7824,22.1635 C43.7484,21.6425 45.1784,19.9355 45.5324,18.5775 C44.6024,19.1735 42.4674,20.0385 41.4154,20.0385 L41.4154,20.0405 C40.2134,18.7845 38.5204,17.9995 36.6434,17.9995 C32.9984,17.9995 30.0424,20.9565 30.0424,24.6015 C30.0424,25.1065 30.1004,25.6015 30.2094,26.0735 L30.2084,26.0735 C25.2624,25.9445 19.8544,23.4665 16.5984,19.2245 C14.5964,22.6885 16.3294,26.5425 18.6004,27.9465 C17.8234,28.0055 16.3914,27.8565 15.7174,27.1985 C15.6724,29.4995 16.7784,32.5465 20.8104,33.6515 C20.0344,34.0695 18.6594,33.9485 18.0614,33.8605 C18.2714,35.8025 20.9904,38.3395 23.9634,38.3395 C22.9034,39.5655 18.9174,41.7885 14.4434,41.0815 C17.4814,42.9295 21.0224,43.9995 24.7704,43.9995 C35.4204,43.9995 43.6924,35.3685 43.2474,24.7205 C43.2454,24.7085 43.2454,24.6965 43.2444,24.6835 C43.2454,24.6555 43.2474,24.6285 43.2474,24.6015 C43.2474,24.5675 43.2444,24.5365 43.2434,24.5035 C44.2134,23.8415 45.5134,22.6675 46.4434,21.1245" id="Fill-3" fill="#FF5C5D"></path>
                </g>
            </g>
        </g>
    </g>
</svg>
