<?xml version="1.0" encoding="UTF-8"?>
<svg width="232px" height="232px" viewBox="0 0 232 232" version="1.1" xmlns="http://www.w3.org/2000/svg" xmlns:xlink="http://www.w3.org/1999/xlink">
    <!-- Generator: Sketch 47.1 (45422) - http://www.bohemiancoding.com/sketch -->
    <title>illustration</title>
    <desc>Created with Sketch.</desc>
    <defs></defs>
    <g id="Page-1" stroke="none" stroke-width="1" fill="none" fill-rule="evenodd">
        <g id="320px" transform="translate(-44.000000, -6404.000000)">
            <g id="6" transform="translate(0.000000, 6140.000000)">
                <g id="6.1" transform="translate(0.000000, 260.000000)">
                    <g id="illustration">
                        <rect id="BG" x="0" y="0" width="320" height="240"></rect>
                        <g id="Sensor1" transform="translate(44.000000, 4.000000)">
                            <path d="M16,2 C8.2680135,2 2,8.2680135 2,16 L2,100 C2,107.731986 8.2680135,114 16,114 L100,114 C107.731986,114 114,107.731986 114,100 L114,16 C114,8.2680135 107.731986,2 100,2 L16,2 Z" id="Rectangle-2" stroke="#404E54" stroke-width="4"></path>
                            <path d="M16,7 C11.0294373,7 7,11.0294373 7,16 L7,100 C7,104.970563 11.0294373,109 16,109 L100,109 C104.970563,109 109,104.970563 109,100 L109,16 C109,11.0294373 104.970563,7 100,7 L16,7 Z" id="Rectangle-2" stroke="#404E54" stroke-width="2"></path>
                            <polygon id="Rectangle-3" fill="#404E54" points="2 56 6 56 6 60 2 60"></polygon>
                            <polygon id="Rectangle-3-Copy-2" fill="#404E54" points="109 56 113 56 113 60 109 60"></polygon>
                            <circle id="Oval-2" stroke="#404E54" stroke-width="2" opacity="0.5" cx="29" cy="58" r="7"></circle>
                            <circle id="Oval-2-Copy" stroke="#404E54" stroke-width="2" opacity="0.5" cx="58" cy="58" r="7"></circle>
                            <circle id="Oval-2-Copy-2" stroke="#404E54" stroke-width="2" opacity="0.5" cx="87" cy="58" r="7"></circle>
                        </g>
                        <g id="1" transform="translate(44.000000, 134.000000)">
                            <rect id="Rectangle-15" fill-opacity="0.25" fill="#404E54" x="0" y="10" width="92" height="1"></rect>
                            <rect id="Rectangle-18" fill-opacity="0.25" fill="#404E54" x="0" y="0" width="1" height="10"></rect>
                            <rect id="Rectangle-15-Copy" fill-opacity="0.25" fill="#404E54" x="89" y="11" width="1" height="91"></rect>
                            <rect id="Rectangle-19" fill-opacity="0.25" fill="#404E54" x="90" y="101" width="10" height="1"></rect>
                            <rect id="Rectangle-16" fill="#FFFFFF" x="49" y="6" width="48" height="42"></rect>
                            <text id="4.7-in.-(120-mm)" font-family="ArialMT, Arial" font-size="14" font-weight="normal" fill="#404E54">
                                <tspan x="58.8623047" y="19">4.7 in. </tspan>
                                <tspan x="37.1035156" y="35">(120 mm)</tspan>
                            </text>
                        </g>
                        <g id="Sensor1-Copy" transform="translate(160.000000, 120.000000)">
                            <path d="M16,2 C8.2680135,2 2,8.2680135 2,16 L2,100 C2,107.731986 8.2680135,114 16,114 L100,114 C107.731986,114 114,107.731986 114,100 L114,16 C114,8.2680135 107.731986,2 100,2 L16,2 Z" id="Rectangle-2" stroke="#404E54" stroke-width="4"></path>
                            <path d="M16,7 C11.0294373,7 7,11.0294373 7,16 L7,100 C7,104.970563 11.0294373,109 16,109 L100,109 C104.970563,109 109,104.970563 109,100 L109,16 C109,11.0294373 104.970563,7 100,7 L16,7 Z" id="Rectangle-2" stroke="#404E54" stroke-width="2"></path>
                            <polygon id="Rectangle-3" fill="#404E54" points="2 56 6 56 6 60 2 60"></polygon>
                            <polygon id="Rectangle-3-Copy-2" fill="#404E54" points="109 56 113 56 113 60 109 60"></polygon>
                            <circle id="Oval-2" stroke="#404E54" stroke-width="2" opacity="0.5" cx="29" cy="58" r="7"></circle>
                            <circle id="Oval-2-Copy" stroke="#404E54" stroke-width="2" opacity="0.5" cx="58" cy="58" r="7"></circle>
                            <circle id="Oval-2-Copy-2" stroke="#404E54" stroke-width="2" opacity="0.5" cx="87" cy="58" r="7"></circle>
                        </g>
                    </g>
                </g>
            </g>
        </g>
    </g>
</svg>