<?xml version="1.0" encoding="UTF-8"?>
<svg width="396px" height="412px" viewBox="0 0 396 412" version="1.1" xmlns="http://www.w3.org/2000/svg" xmlns:xlink="http://www.w3.org/1999/xlink">
    <!-- Generator: Sketch 47.1 (45422) - http://www.bohemiancoding.com/sketch -->
    <title>Unit</title>
    <desc>Created with Sketch.</desc>
    <defs></defs>
    <g id="Page-1" stroke="none" stroke-width="1" fill="none" fill-rule="evenodd">
        <g id="1070px" transform="translate(-524.000000, -9642.000000)">
            <g id="7" transform="translate(65.000000, 9407.000000)">
                <g id="7.1" transform="translate(0.000000, 223.000000)">
                    <g id="Img">
                        <g id="Unit" transform="translate(427.000000, 10.000000)">
                            <g transform="translate(128.000000, 46.000000)">
                                <rect id="Rectangle-4" fill="#404E54" opacity="0.5" x="74" y="364" width="151" height="4"></rect>
                                <path d="M222.897857,366 L294,366 C296.209139,366 298,364.209139 298,362 L298,6 C298,3.790861 296.209139,2 294,2 L6,2 C3.790861,2 2,3.790861 2,6 L2,362 C2,364.209139 3.790861,366 6,366 L76.1021427,366 L83.8782209,326.672358 C84.9896787,321.051141 89.9202653,317 95.6503099,317 L203.34969,317 C209.079735,317 214.010321,321.051141 215.121779,326.672358 L222.897857,366 Z" id="Combined-Shape" stroke="#404E54" stroke-width="4"></path>
                            </g>
                            <g id="2" transform="translate(0.000000, 46.000000)">
                                <rect id="Rectangle-12" fill-opacity="0.25" fill="#404E54" x="92" y="0" width="1" height="368"></rect>
                                <rect id="Rectangle-14" fill-opacity="0.25" fill="#404E54" x="93" y="367" width="10" height="1"></rect>
                                <rect id="Rectangle-14" fill-opacity="0.25" fill="#404E54" x="93" y="0" width="10" height="1"></rect>
                                <rect id="Rectangle-13" fill="#FFFFFF" x="91" y="150" width="3" height="68"></rect>
                                <text id="12.5-in.-(320-mm)" font-family="ArialMT, Arial" font-size="18" font-weight="normal" fill="#404E54">
                                    <tspan x="49.9550781" y="180">12.5 in. </tspan>
                                    <tspan x="31.9902344" y="200">(320 mm)</tspan>
                                </text>
                            </g>
                            <g id="1" transform="translate(128.000000, 0.000000)">
                                <g id="Group" transform="translate(0.000000, 9.000000)">
                                    <rect id="Rectangle-10" fill-opacity="0.25" fill="#404E54" x="0" y="1" width="300" height="1"></rect>
                                    <rect id="Rectangle-11" fill-opacity="0.25" fill="#404E54" x="0" y="2" width="1" height="10"></rect>
                                    <rect id="Rectangle-11-Copy" fill-opacity="0.25" fill="#404E54" x="299" y="2" width="1" height="10"></rect>
                                    <rect id="Rectangle-7" fill="#FFFFFF" x="69" y="0" width="162" height="3"></rect>
                                </g>
                                <text id="8.6-in.-(220-mm)" font-family="ArialMT, Arial" font-size="18" font-weight="normal" fill="#404E54">
                                    <tspan x="84.9775391" y="16">8.6 in. (220 mm)</tspan>
                                </text>
                            </g>
                        </g>
                    </g>
                </g>
            </g>
        </g>
    </g>
</svg>