<?xml version="1.0" encoding="UTF-8"?>
<svg width="64px" height="64px" viewBox="0 0 64 64" version="1.1" xmlns="http://www.w3.org/2000/svg" xmlns:xlink="http://www.w3.org/1999/xlink">
    <!-- Generator: Sketch 47.1 (45422) - http://www.bohemiancoding.com/sketch -->
    <title>Page 1</title>
    <desc>Created with Sketch.</desc>
    <defs></defs>
    <g id="Page-1" stroke="none" stroke-width="1" fill="none" fill-rule="evenodd">
        <g id="1070px" transform="translate(-65.000000, -2900.000000)">
            <g id="3" transform="translate(65.000000, 2677.000000)">
                <g id="3.1" transform="translate(0.000000, 223.000000)">
                    <g id="icon">
                        <g id="Page-1">
                            <path d="M16,53 L16,60 L16,53 Z" id="Stroke-1" stroke="#FF5C5D" stroke-width="2" stroke-linecap="round" stroke-linejoin="round"></path>
                            <path d="M24,53 L24,60" id="Stroke-3" stroke="#FF5C5D" stroke-width="2" stroke-linecap="round" stroke-linejoin="round"></path>
                            <path d="M32,53 L32,60" id="Stroke-5" stroke="#FF5C5D" stroke-width="2" stroke-linecap="round" stroke-linejoin="round"></path>
                            <path d="M40,53 L40,60" id="Stroke-7" stroke="#FF5C5D" stroke-width="2" stroke-linecap="round" stroke-linejoin="round"></path>
                            <path d="M48,53 L48,60" id="Stroke-9" stroke="#FF5C5D" stroke-width="2" stroke-linecap="round" stroke-linejoin="round"></path>
                            <path d="M16,4 L16,11" id="Stroke-11" stroke="#FF5C5D" stroke-width="2" stroke-linecap="round" stroke-linejoin="round"></path>
                            <path d="M24,4 L24,11" id="Stroke-13" stroke="#FF5C5D" stroke-width="2" stroke-linecap="round" stroke-linejoin="round"></path>
                            <path d="M32,4 L32,11" id="Stroke-15" stroke="#FF5C5D" stroke-width="2" stroke-linecap="round" stroke-linejoin="round"></path>
                            <path d="M40,4 L40,11" id="Stroke-17" stroke="#FF5C5D" stroke-width="2" stroke-linecap="round" stroke-linejoin="round"></path>
                            <path d="M48,4 L48,11" id="Stroke-19" stroke="#FF5C5D" stroke-width="2" stroke-linecap="round" stroke-linejoin="round"></path>
                            <path d="M11,16 L4,16" id="Stroke-21" stroke="#FF5C5D" stroke-width="2" stroke-linecap="round" stroke-linejoin="round"></path>
                            <path d="M11,24 L4,24" id="Stroke-23" stroke="#FF5C5D" stroke-width="2" stroke-linecap="round" stroke-linejoin="round"></path>
                            <path d="M11,32 L4,32" id="Stroke-25" stroke="#FF5C5D" stroke-width="2" stroke-linecap="round" stroke-linejoin="round"></path>
                            <path d="M11,40 L4,40" id="Stroke-27" stroke="#FF5C5D" stroke-width="2" stroke-linecap="round" stroke-linejoin="round"></path>
                            <path d="M11,48 L4,48" id="Stroke-29" stroke="#FF5C5D" stroke-width="2" stroke-linecap="round" stroke-linejoin="round"></path>
                            <path d="M60,16 L53,16" id="Stroke-31" stroke="#FF5C5D" stroke-width="2" stroke-linecap="round" stroke-linejoin="round"></path>
                            <path d="M60,24 L53,24" id="Stroke-33" stroke="#FF5C5D" stroke-width="2" stroke-linecap="round" stroke-linejoin="round"></path>
                            <path d="M60,32 L53,32" id="Stroke-35" stroke="#FF5C5D" stroke-width="2" stroke-linecap="round" stroke-linejoin="round"></path>
                            <path d="M60,40 L53,40" id="Stroke-37" stroke="#FF5C5D" stroke-width="2" stroke-linecap="round" stroke-linejoin="round"></path>
                            <path d="M60,48 L53,48" id="Stroke-39" stroke="#FF5C5D" stroke-width="2" stroke-linecap="round" stroke-linejoin="round"></path>
                            <path d="M13,53 L51,53 L51,53 C52.1045695,53 53,52.1045695 53,51 L53,13 L53,13 C53,11.8954305 52.1045695,11 51,11 L13,11 L13,11 C11.8954305,11 11,11.8954305 11,13 L11,51 L11,51 C11,52.1045695 11.8954305,53 13,53 Z" id="Stroke-47" fill="#FF5C5D"></path>
                            <path d="M26.52,28.04 L24.76,32.98 L28.24,32.98 L26.52,28.04 Z M30.7,39 L29.02,34.88 L24,34.88 C23.46,36.16 22.76,37.84 22.32,39 L20.14,39 L25.76,24.82 L27.24,24.82 L32.86,39 L30.7,39 Z M42.5,25.02 L35.28,25.02 L35.28,27.02 L37.88,27.02 L37.88,36.98 L35.28,36.98 L35.28,39 L42.5,39 L42.5,36.98 L39.9,36.98 L39.9,27.02 L42.5,27.02 L42.5,25.02 Z" id="Ai" fill="#FFFFFF"></path>
                        </g>
                    </g>
                </g>
            </g>
        </g>
    </g>
</svg>
