<?xml version="1.0" encoding="UTF-8"?>
<svg width="60px" height="60px" viewBox="0 0 60 60" version="1.1" xmlns="http://www.w3.org/2000/svg" xmlns:xlink="http://www.w3.org/1999/xlink">
    <!-- Generator: Sketch 47.1 (45422) - http://www.bohemiancoding.com/sketch -->
    <title>Icon</title>
    <desc>Created with Sketch.</desc>
    <defs></defs>
    <g id="Page-1" stroke="none" stroke-width="1" fill="none" fill-rule="evenodd">
        <g id="320px" transform="translate(-130.000000, -3050.000000)">
            <g id="3" transform="translate(0.000000, 2449.000000)">
                <g id="2-copy" transform="translate(30.000000, 601.000000)">
                    <g id="Icon" transform="translate(100.000000, 0.000000)">
                        <path d="M40.5434715,13.125576 L24.6690476,29 L2,29 C9.97135417,17 19.3046875,11 30,11 C33.6753233,11 37.1898138,11.7085253 40.5434715,13.125576 Z M44.2851209,15.0407809 C49.2338587,18.0325445 53.8054851,22.6856176 58,29 L30.3259018,29 L44.2851209,15.0407809 Z M24.6690476,29 L23.6690476,30 L2,30 L2,29 L24.6690476,29 Z M30.3259018,29 L58,29 L58,30 L29.3259018,30 L30.3259018,29 Z M15.9880379,43.3378639 L29.3259018,30 L58,30 C50.0286458,41.3333333 40.6953125,47 30,47 C25.0359487,47 20.3652947,45.779288 15.9880379,43.3378639 Z M12.5464679,41.1225797 C8.79977799,38.376989 5.28428871,34.6694624 2,30 L23.6690476,30 L12.5464679,41.1225797 Z" id="Combined-Shape" fill="#74878D"></path>
                        <path d="M24.7337772,36.2992314 L37.2992314,23.7337772 C38.3693342,25.214399 39,27.0335495 39,29 C39,33.9705627 34.9705627,38 30,38 C28.0335495,38 26.214399,37.3693342 24.7337772,36.2992314 Z M21.8487136,32.820334 C21.304265,31.6606752 21,30.3658701 21,29 C21,24.0294373 25.0294373,20 30,20 C31.3658701,20 32.6606752,20.304265 33.820334,20.8487136 L21.8487136,32.820334 Z" id="Combined-Shape" fill="#F9F9F5"></path>
                        <rect id="Rectangle-21-Copy" fill="#74878D" transform="translate(30.000000, 30.000000) rotate(-315.000000) translate(-30.000000, -30.000000) " x="29" y="-4" width="2" height="68" rx="1"></rect>
                    </g>
                </g>
            </g>
        </g>
    </g>
</svg>
