<?xml version="1.0" encoding="UTF-8"?>
<svg width="64px" height="64px" viewBox="0 0 64 64" version="1.1" xmlns="http://www.w3.org/2000/svg" xmlns:xlink="http://www.w3.org/1999/xlink">
    <!-- Generator: Sketch 47.1 (45422) - http://www.bohemiancoding.com/sketch -->
    <title>Icon</title>
    <desc>Created with Sketch.</desc>
    <defs></defs>
    <g id="Page-1" stroke="none" stroke-width="1" fill="none" fill-rule="evenodd">
        <g id="1070px" transform="translate(-406.000000, -2900.000000)">
            <g id="3" transform="translate(65.000000, 2677.000000)">
                <g id="3.2" transform="translate(341.000000, 223.000000)">
                    <g id="Icon">
                        <path d="M42.5434715,16.125576 L26.6690476,32 L4,32 C11.9713542,20 21.3046875,14 32,14 C35.6753233,14 39.1898138,14.7085253 42.5434715,16.125576 Z M46.2851209,18.0407809 C51.2338587,21.0325445 55.8054851,25.6856176 60,32 L32.3259018,32 L46.2851209,18.0407809 Z M26.6690476,32 L25.6690476,33 L4,33 L4,32 L26.6690476,32 Z M32.3259018,32 L60,32 L60,33 L31.3259018,33 L32.3259018,32 Z M17.9880379,46.3378639 L31.3259018,33 L60,33 C52.0286458,44.3333333 42.6953125,50 32,50 C27.0359487,50 22.3652947,48.779288 17.9880379,46.3378639 Z M14.5464679,44.1225797 C10.799778,41.376989 7.28428871,37.6694624 4,33 L25.6690476,33 L14.5464679,44.1225797 Z" id="Combined-Shape" fill="#FF5C5D"></path>
                        <path d="M26.7337772,39.2992314 L39.2992314,26.7337772 C40.3693342,28.214399 41,30.0335495 41,32 C41,36.9705627 36.9705627,41 32,41 C30.0335495,41 28.214399,40.3693342 26.7337772,39.2992314 Z M23.8487136,35.820334 C23.304265,34.6606752 23,33.3658701 23,32 C23,27.0294373 27.0294373,23 32,23 C33.3658701,23 34.6606752,23.304265 35.820334,23.8487136 L23.8487136,35.820334 Z" id="Combined-Shape" fill="#F9F9F5"></path>
                        <rect id="Rectangle-21-Copy" fill="#FF5C5D" transform="translate(32.000000, 33.000000) rotate(-315.000000) translate(-32.000000, -33.000000) " x="31" y="-1" width="2" height="68" rx="1"></rect>
                    </g>
                </g>
            </g>
        </g>
    </g>
</svg>
